<svg id="Layer_1" data-name="Layer 1" xmlns="http://www.w3.org/2000/svg" viewBox="0 0 890 322"><defs><style>.cls-1{fill:#91dc47;}</style></defs><title>musiclj-logo-green</title><path id="path14" class="cls-1" d="M185.53,238c-8.89-1.12-16.24-2.46-22.66-4.73a80.68,80.68,0,0,1-89-133,59.12,59.12,0,0,0-14-1.71C36.16,98.85,11.17,112,.77,147.34c-1,5.15-.75,9-.75,13.66a127,127,0,0,0,230.9,73,147.7,147.7,0,0,1-34.62,4.61,90.69,90.69,0,0,1-10.77-.61"/><path id="path18" class="cls-1" d="M127,34A126.83,126.83,0,0,0,23.81,87,64.44,64.44,0,0,1,58.74,76.91c14.77,0,26.38,4.62,31.95,7.75,1.34.78,2.62,1.61,3.87,2.47A80.71,80.71,0,0,1,207.74,161h0a80.44,80.44,0,0,1-24,57.42,100.85,100.85,0,0,0,11.48.64c14.07,0,29.27-3.1,40.67-12.69,7.43-6.26,13.66-15.43,17.11-29.17A126.78,126.78,0,0,0,127,34"/><path class="cls-1" d="M127,93.7a67.3,67.3,0,1,0,67.3,67.3A67.3,67.3,0,0,0,127,93.7ZM97,198.08a7.3,7.3,0,0,1-3-.65,7.11,7.11,0,0,1-3.75-4.05l-3.26-9a7.19,7.19,0,0,1,.24-5.5,7.06,7.06,0,0,1,2.15-2.57c.41,2.25.24,1,7,19.8a11.54,11.54,0,0,0,.88,1.92C97.2,198,97.11,198.08,97,198.08Zm13.12.8a7.15,7.15,0,0,1-9.21-4.34l-6.55-17.95a7.18,7.18,0,0,1,13.5-4.9l6.56,18A7.18,7.18,0,0,1,110.14,198.88Zm-.64-55.81a7.14,7.14,0,0,1-4.36,1.49,6.64,6.64,0,0,1-3.25-.84,33.69,33.69,0,0,0-8.35,25.53l-3.87,1.4c-.26.1-.49.25-.75.36a38.48,38.48,0,0,1,9.65-30.75,7.11,7.11,0,0,1,2.17-8.57,43.56,43.56,0,0,1,53.05,0,7.1,7.1,0,0,1,2.17,8.57,38.37,38.37,0,0,1,9.62,31c-2.1-1.07-1.09-.47-4.61-1.83a33.64,33.64,0,0,0-8.33-25.69h0a7.34,7.34,0,0,1-7.61-.64A29.14,29.14,0,0,0,109.5,143.07ZM144,198.88a7.17,7.17,0,0,1-4.29-9.2l6.55-18a7.18,7.18,0,0,1,13.5,4.9l-6.56,18A7.17,7.17,0,0,1,144,198.88Zm23.14-14.53s-3.31,9-3.31,9a7.18,7.18,0,0,1-6.74,4.68c-.08,0-.17,0-.26,0,1.09-1.91.49-1,7.43-19.8a12.42,12.42,0,0,0,.49-1.93A7.24,7.24,0,0,1,167.1,184.35Z"/><path class="cls-1" d="M432,143.2q9,9,8.95,26.86v46.35H417.48V173.67q0-9.61-4-14.37t-11.36-4.74q-8.28,0-13.09,5.34t-4.82,15.88v40.63H360.74V173.67q0-19.09-15.35-19.11-8.11,0-12.94,5.34t-4.81,15.88v40.63H304.16v-81h22.42v9.33A29.6,29.6,0,0,1,337.64,137,37.21,37.21,0,0,1,352,134.25a35,35,0,0,1,15.5,3.38,27.53,27.53,0,0,1,11.13,9.86,33.25,33.25,0,0,1,12.57-9.78,39.59,39.59,0,0,1,16.63-3.46Q423,134.25,432,143.2Z"/><path class="cls-1" d="M543.58,135.45v81H521.31v-9.63a31.09,31.09,0,0,1-11.13,8.05,35,35,0,0,1-14,2.79q-15.94,0-25.28-9.18t-9.33-27.24V135.45h23.48v42.29q0,19.56,16.4,19.56,8.43,0,13.54-5.49t5.12-16.33v-40Z"/><path class="cls-1" d="M572.93,215.13q-9.63-2.48-15.35-6.24L565.4,192a49.47,49.47,0,0,0,13.1,5.65,55,55,0,0,0,15,2.18q14.91,0,14.9-7.37,0-3.47-4.06-5A60.21,60.21,0,0,0,591.89,185a120.52,120.52,0,0,1-16.4-3.46,25.37,25.37,0,0,1-11.21-6.92q-4.74-5-4.74-14.15A22.18,22.18,0,0,1,564,146.81q4.44-5.94,12.95-9.25A55.16,55.16,0,0,1,597,134.25a79.1,79.1,0,0,1,17.08,1.88,47.72,47.72,0,0,1,14.07,5.19L620.33,158A46.74,46.74,0,0,0,597,152q-7.53,0-11.29,2.11c-2.51,1.41-3.76,3.21-3.76,5.42,0,2.51,1.35,4.26,4.06,5.27A72.82,72.82,0,0,0,599,167.66a139.32,139.32,0,0,1,16.26,3.53,24.48,24.48,0,0,1,11,6.85q4.66,5,4.66,13.84a21.4,21.4,0,0,1-4.51,13.4q-4.51,5.86-13.17,9.1a58.57,58.57,0,0,1-20.54,3.24A78.42,78.42,0,0,1,572.93,215.13Z"/><path class="cls-1" d="M646.52,120.4a12.73,12.73,0,0,1,0-18.66A14.89,14.89,0,0,1,657.05,98a15.23,15.23,0,0,1,10.53,3.61,11.59,11.59,0,0,1,4.07,9,12.79,12.79,0,0,1-4.07,9.71,14.69,14.69,0,0,1-10.53,3.83A14.85,14.85,0,0,1,646.52,120.4Zm-1.21,15h23.48v81H645.31Z"/><path class="cls-1" d="M689.1,213.4a14.27,14.27,0,0,1-4.21-10.53,13.74,13.74,0,0,1,4.21-10.46,15.51,15.51,0,0,1,20.77,0,13.74,13.74,0,0,1,4.21,10.46,14.27,14.27,0,0,1-4.21,10.53,14.89,14.89,0,0,1-20.77,0Z"/><path class="cls-1" d="M744.86,212.27A39.72,39.72,0,0,1,723,175.93a40.39,40.39,0,0,1,5.8-21.52,40,40,0,0,1,16.1-14.82,49.78,49.78,0,0,1,23.25-5.34q12.78,0,22.35,5.34a31.73,31.73,0,0,1,13.92,15.27l-18.21,9.79q-6.33-11.15-18.21-11.14a20.61,20.61,0,0,0-15.2,6q-6,6-6,16.4t6,16.41a20.6,20.6,0,0,0,15.2,6q12,0,18.21-11.13l18.21,9.93a32.38,32.38,0,0,1-13.92,15q-9.57,5.42-22.35,5.42A49.66,49.66,0,0,1,744.86,212.27Z"/><path class="cls-1" d="M817.32,104.75h23.47V216.41H817.32Z"/><path class="cls-1" d="M837.78,242.3l6.32-17a16.8,16.8,0,0,0,9.93,2.86,8.93,8.93,0,0,0,7.08-2.93c1.7-2,2.56-4.89,2.56-8.81v-81h23.47v80.81q0,14.15-8,22.35t-22.5,8.2Q844.26,246.81,837.78,242.3Zm27.09-121.9a12.75,12.75,0,0,1,0-18.66A14.92,14.92,0,0,1,875.4,98a15.26,15.26,0,0,1,10.54,3.61,11.58,11.58,0,0,1,4.06,9,12.79,12.79,0,0,1-4.06,9.71,14.71,14.71,0,0,1-10.54,3.83A14.88,14.88,0,0,1,864.87,120.4Z"/></svg>