<svg id="Layer_1" data-name="Layer 1" xmlns="http://www.w3.org/2000/svg" viewBox="0 0 890 322"><title>musiclj-logo-black</title><path id="path14" d="M208.7,231.15c-8.1-1-14.79-2.24-20.64-4.3A73.48,73.48,0,0,1,107,105.76a54,54,0,0,0-12.76-1.56c-21.57.2-44.33,12.13-53.8,44.36-.89,4.69-.68,8.24-.68,12.44A115.65,115.65,0,0,0,250,227.51a134.8,134.8,0,0,1-31.52,4.2,81.21,81.21,0,0,1-9.81-.56"/><path id="path18" d="M155.42,45.32a115.5,115.5,0,0,0-94,48.32,58.73,58.73,0,0,1,31.81-9.22,62.17,62.17,0,0,1,29.09,7.06c1.22.71,2.39,1.47,3.53,2.25A73.48,73.48,0,0,1,228.92,161h0a73.27,73.27,0,0,1-21.86,52.29,90,90,0,0,0,10.45.58c12.81,0,26.66-2.82,37-11.55,6.77-5.7,12.44-14,15.59-26.57a117.62,117.62,0,0,0,1-14.75A115.68,115.68,0,0,0,155.42,45.32"/><path d="M155.43,99.71A61.29,61.29,0,1,0,216.72,161,61.3,61.3,0,0,0,155.43,99.71Zm-27.34,95.06a6.57,6.57,0,0,1-2.74-.6,6.43,6.43,0,0,1-3.41-3.68l-3-8.2a6.29,6.29,0,0,1,2.17-7.35c.38,2.05.22.9,6.38,18a10.57,10.57,0,0,0,.8,1.74A2,2,0,0,1,128.09,194.77Zm11.95.73a6.52,6.52,0,0,1-8.39-3.95l-6-16.35A6.54,6.54,0,1,1,138,170.74l6,16.39A6.54,6.54,0,0,1,140,195.5Zm-.59-50.83a6.49,6.49,0,0,1-4,1.35,6,6,0,0,1-3-.76,30.66,30.66,0,0,0-7.61,23.25l-3.53,1.28c-.24.09-.44.22-.67.32a35,35,0,0,1,8.78-28,6.48,6.48,0,0,1-.52-3.48,6.56,6.56,0,0,1,2.5-4.34,39.69,39.69,0,0,1,48.31,0,6.49,6.49,0,0,1,2,7.81,35,35,0,0,1,8.76,28.2c-1.92-1-1-.42-4.2-1.66a30.59,30.59,0,0,0-7.59-23.39h0a6.68,6.68,0,0,1-6.92-.59A26.56,26.56,0,0,0,139.45,144.67Zm31.39,50.83a6.53,6.53,0,0,1-3.91-8.38l6-16.38a6.54,6.54,0,1,1,12.29,4.46l-6,16.38A6.52,6.52,0,0,1,170.84,195.5Zm21.07-13.23-3,8.22a6.54,6.54,0,0,1-6.14,4.27c-.08,0-.16,0-.24,0,1-1.75.45-.93,6.77-18a11.49,11.49,0,0,0,.45-1.77A6.61,6.61,0,0,1,191.91,182.27Z"/><path d="M433.16,144.79q8.14,8.16,8.15,24.46v42.22H419.93V172.54q0-8.76-3.63-13.09T406,155.14q-7.54,0-11.93,4.86t-4.38,14.46v37H368.27V172.54q0-17.4-14-17.4-7.41,0-11.79,4.86t-4.38,14.46v37H316.74V137.73h20.42v8.5a27,27,0,0,1,10.07-7.13,34,34,0,0,1,13.09-2.46,31.6,31.6,0,0,1,14.11,3.08,24.94,24.94,0,0,1,10.15,9A30.11,30.11,0,0,1,396,139.79a36.1,36.1,0,0,1,15.14-3.15Q425,136.64,433.16,144.79Z"/><path d="M534.78,137.73v73.74H514.5v-8.78A28.4,28.4,0,0,1,504.36,210a31.93,31.93,0,0,1-12.75,2.53q-14.52,0-23-8.36t-8.5-24.8V137.73h21.38v38.51q0,17.82,14.94,17.82c5.11,0,9.23-1.67,12.33-5s4.66-8.29,4.66-14.87V137.73Z"/><path d="M561.51,210.3a46.77,46.77,0,0,1-14-5.69l7.12-15.35a44.48,44.48,0,0,0,11.93,5.14,49.79,49.79,0,0,0,13.7,2q13.58,0,13.57-6.72c0-2.1-1.23-3.6-3.7-4.52a55.14,55.14,0,0,0-11.38-2.33,108.77,108.77,0,0,1-14.93-3.15,23.11,23.11,0,0,1-10.21-6.31q-4.32-4.52-4.32-12.88a20.2,20.2,0,0,1,4-12.4,26.06,26.06,0,0,1,11.79-8.43,50.32,50.32,0,0,1,18.29-3A72,72,0,0,1,599,138.35a43.41,43.41,0,0,1,12.81,4.73l-7.12,15.21a42.61,42.61,0,0,0-21.25-5.48q-6.85,0-10.27,1.92t-3.43,4.93q0,3.42,3.7,4.8a65.84,65.84,0,0,0,11.79,2.6,127.74,127.74,0,0,1,14.8,3.22,22.23,22.23,0,0,1,10,6.24q4.25,4.51,4.25,12.61a19.44,19.44,0,0,1-4.11,12.19q-4.11,5.35-12,8.29a53.33,53.33,0,0,1-18.71,2.95A71.45,71.45,0,0,1,561.51,210.3Z"/><path d="M628.52,124a11.61,11.61,0,0,1,0-17,13.59,13.59,0,0,1,9.6-3.42,13.88,13.88,0,0,1,9.59,3.29,10.52,10.52,0,0,1,3.7,8.22,11.63,11.63,0,0,1-3.7,8.84,13.41,13.41,0,0,1-9.59,3.49A13.59,13.59,0,0,1,628.52,124Zm-1.09,13.7h21.38v73.74H627.43Z"/><path d="M667.31,208.72a13,13,0,0,1-3.84-9.59,12.49,12.49,0,0,1,3.84-9.52,14.1,14.1,0,0,1,18.91,0,12.49,12.49,0,0,1,3.84,9.52,13,13,0,0,1-3.84,9.59,13.56,13.56,0,0,1-18.91,0Z"/><path d="M718.09,207.7a37.17,37.17,0,0,1,0-66.2,45.32,45.32,0,0,1,21.17-4.86,41,41,0,0,1,20.35,4.86,28.9,28.9,0,0,1,12.68,13.91l-16.58,8.91q-5.76-10.14-16.59-10.14a18.77,18.77,0,0,0-13.84,5.48q-5.47,5.49-5.48,14.94t5.48,14.94A18.77,18.77,0,0,0,739.12,195q11,0,16.59-10.14l16.58,9a29.45,29.45,0,0,1-12.68,13.71,40.54,40.54,0,0,1-20.35,4.93A45.32,45.32,0,0,1,718.09,207.7Z"/><path d="M784.07,109.77h21.39v101.7H784.07Z"/><path d="M802.71,235l5.76-15.49a15.29,15.29,0,0,0,9,2.61,8.12,8.12,0,0,0,6.45-2.68q2.32-2.67,2.33-8V137.73h21.38v73.6q0,12.88-7.34,20.35t-20.49,7.47Q808.61,239.15,802.71,235Zm24.67-111a11.61,11.61,0,0,1,0-17,13.59,13.59,0,0,1,9.6-3.42,13.88,13.88,0,0,1,9.59,3.29,10.52,10.52,0,0,1,3.7,8.22,11.63,11.63,0,0,1-3.7,8.84,13.41,13.41,0,0,1-9.59,3.49A13.59,13.59,0,0,1,827.38,124Z"/></svg>